<?xml version="1.0" encoding="UTF-8"?>
<svg width="1200" height="400" viewBox="0 0 1200 400" fill="none" xmlns="http://www.w3.org/2000/svg">
  <!-- Background gradient -->
  <rect width="1200" height="400" fill="url(#paint0_linear)" />
  
  <!-- Neural network nodes and connections -->
  <g opacity="0.2">
    <!-- Central node -->
    <circle cx="600" cy="200" r="15" fill="#FFFFFF" />
    
    <!-- Surrounding nodes -->
    <circle cx="400" cy="100" r="10" fill="#FFFFFF" />
    <circle cx="800" cy="100" r="10" fill="#FFFFFF" />
    <circle cx="400" cy="300" r="10" fill="#FFFFFF" />
    <circle cx="800" cy="300" r="10" fill="#FFFFFF" />
    <circle cx="300" cy="200" r="10" fill="#FFFFFF" />
    <circle cx="900" cy="200" r="10" fill="#FFFFFF" />
    <circle cx="600" cy="50" r="10" fill="#FFFFFF" />
    <circle cx="600" cy="350" r="10" fill="#FFFFFF" />
    
    <!-- Additional nodes -->
    <circle cx="500" cy="150" r="8" fill="#FFFFFF" />
    <circle cx="700" cy="150" r="8" fill="#FFFFFF" />
    <circle cx="500" cy="250" r="8" fill="#FFFFFF" />
    <circle cx="700" cy="250" r="8" fill="#FFFFFF" />
    
    <!-- Connections -->
    <line x1="600" y1="200" x2="400" y2="100" stroke="#FFFFFF" stroke-width="1" />
    <line x1="600" y1="200" x2="800" y2="100" stroke="#FFFFFF" stroke-width="1" />
    <line x1="600" y1="200" x2="400" y2="300" stroke="#FFFFFF" stroke-width="1" />
    <line x1="600" y1="200" x2="800" y2="300" stroke="#FFFFFF" stroke-width="1" />
    <line x1="600" y1="200" x2="300" y2="200" stroke="#FFFFFF" stroke-width="1" />
    <line x1="600" y1="200" x2="900" y2="200" stroke="#FFFFFF" stroke-width="1" />
    <line x1="600" y1="200" x2="600" y2="50" stroke="#FFFFFF" stroke-width="1" />
    <line x1="600" y1="200" x2="600" y2="350" stroke="#FFFFFF" stroke-width="1" />
    <line x1="600" y1="200" x2="500" y2="150" stroke="#FFFFFF" stroke-width="1" />
    <line x1="600" y1="200" x2="700" y2="150" stroke="#FFFFFF" stroke-width="1" />
    <line x1="600" y1="200" x2="500" y2="250" stroke="#FFFFFF" stroke-width="1" />
    <line x1="600" y1="200" x2="700" y2="250" stroke="#FFFFFF" stroke-width="1" />
    
    <!-- Secondary connections -->
    <line x1="400" y1="100" x2="500" y2="150" stroke="#FFFFFF" stroke-width="0.5" />
    <line x1="800" y1="100" x2="700" y2="150" stroke="#FFFFFF" stroke-width="0.5" />
    <line x1="400" y1="300" x2="500" y2="250" stroke="#FFFFFF" stroke-width="0.5" />
    <line x1="800" y1="300" x2="700" y2="250" stroke="#FFFFFF" stroke-width="0.5" />
    <line x1="600" y1="50" x2="400" y2="100" stroke="#FFFFFF" stroke-width="0.5" />
    <line x1="600" y1="50" x2="800" y2="100" stroke="#FFFFFF" stroke-width="0.5" />
    <line x1="600" y1="350" x2="400" y2="300" stroke="#FFFFFF" stroke-width="0.5" />
    <line x1="600" y1="350" x2="800" y2="300" stroke="#FFFFFF" stroke-width="0.5" />
  </g>
  
  <!-- Animated particles -->
  <circle cx="450" cy="120" r="3" fill="#FFFFFF">
    <animate attributeName="opacity" values="0.2;0.8;0.2" dur="3s" repeatCount="indefinite" />
  </circle>
  <circle cx="750" cy="280" r="3" fill="#FFFFFF">
    <animate attributeName="opacity" values="0.2;0.8;0.2" dur="4s" repeatCount="indefinite" />
  </circle>
  <circle cx="550" cy="320" r="3" fill="#FFFFFF">
    <animate attributeName="opacity" values="0.2;0.8;0.2" dur="5s" repeatCount="indefinite" />
  </circle>
  <circle cx="650" cy="80" r="3" fill="#FFFFFF">
    <animate attributeName="opacity" values="0.2;0.8;0.2" dur="3.5s" repeatCount="indefinite" />
  </circle>
  
  <defs>
    <linearGradient id="paint0_linear" x1="0" y1="0" x2="1200" y2="400" gradientUnits="userSpaceOnUse">
      <stop offset="0" stop-color="#3498db" />
      <stop offset="1" stop-color="#2c3e50" />
    </linearGradient>
  </defs>
</svg>
